<?xml version="1.0" encoding="UTF-8" standalone="no"?><svg xmlns="http://www.w3.org/2000/svg" data-name="Ebene 1" height="11.32cm" id="Ebene_1" viewBox="0 0 553.76 320.96" width="19.54cm"><defs><style>.cls-1{fill:none;}.cls-2{fill:#004f9f;}.cls-3,.cls-4,.cls-5,.cls-6,.cls-7,.cls-8,.cls-9{fill:#b9b8b8;}.cls-3,.cls-5,.cls-6,.cls-7,.cls-8,.cls-9{stroke:#b9b8b8;}.cls-3{stroke-width:1.9px;}.cls-5{stroke-width:1.05px;}.cls-6{stroke-width:0.42px;}.cls-7{stroke-width:5.68px;}.cls-8{stroke-width:0.1px;}.cls-9{stroke-width:2.37px;}</style></defs><title>Logo Wort-Bildmarke Kopie</title><path class="cls-1" d="M167.34,107.48c25-12.25,45.33-19.52,60.9-23.7,37.08-10,49.32,12.37,67.33,12.86,27,0.73,42.19,15.66,64.09,17.31,22.5,1.7,28.71-.64,45.9-7.16,14-5.93,32-14.45,46.21-19.12C482.63,77.55,507.7,106.94,532.6,105"/><path class="cls-2" d="M164.81,112.15a401.09,401.09,0,0,1,40.81-17.38c10.93-3.9,22.29-7.74,33.92-8.65,9.8-.77,19.26,1.51,28.12,5.55,6.73,3.07,13,7.26,20.29,9.08,4.74,1.19,9.83.84,14.65,1.57A92.47,92.47,0,0,1,321,107.44c10.54,3.92,20.62,9,31.81,10.81a84.55,84.55,0,0,0,33.34-1c11.06-2.75,21.54-7.8,31.93-12.37,10.62-4.67,21.3-9.48,32.4-12.91,9.39-2.91,19.32-1.69,28.56,1.13,16.8,5.13,32.58,17.71,50.83,16.68,1.13-.06,2.78-3.71,3.23-4.49,0.16-.27,2.41-5,2.27-5-10.48.59-20.24-3.66-29.59-7.88-10.28-4.64-20.48-9.56-31.76-11.2-12.84-1.87-24.66,3.29-36.27,8.08-12.45,5.14-24.56,11.07-37.23,15.66-21.23,7.7-43.21,5.43-63.85-3-11.39-4.63-22.59-8.9-35-9.94A53.67,53.67,0,0,1,280,85.55c-6.38-3.29-12.79-6.3-19.83-7.9C250.51,75.44,240.5,76.57,231,79c-21.16,5.46-41.54,14.24-61.13,23.79-1.57.76-2.95,4.25-3.72,5.67-0.18.33-1.92,4-1.34,3.67h0Z"/><path d="M11.67,121.11a26.09,26.09,0,0,1-6.53-.7,34.66,34.66,0,0,1-5.06-1.74v-5.22H0.41a17.37,17.37,0,0,0,5.26,3,16.61,16.61,0,0,0,5.66,1.06,10,10,0,0,0,5.88-1.44,4.46,4.46,0,0,0,2-3.79,4.41,4.41,0,0,0-1-3,6.4,6.4,0,0,0-3.32-1.74q-1.64-.42-3-0.69t-3.39-.74A17.53,17.53,0,0,1,5.19,105a9.21,9.21,0,0,1-2.56-1.7,7.26,7.26,0,0,1-1.69-2.43,8,8,0,0,1-.6-3.22,7.77,7.77,0,0,1,3.34-6.37,13.59,13.59,0,0,1,8.53-2.57,28.69,28.69,0,0,1,5.61.53,24.49,24.49,0,0,1,4.89,1.49v5H22.35A16,16,0,0,0,18,93.31a15.16,15.16,0,0,0-5.52-1,9.32,9.32,0,0,0-5.29,1.35,4.12,4.12,0,0,0-2,3.56,4.26,4.26,0,0,0,1.19,3.17,7.19,7.19,0,0,0,3.44,1.72q1.49,0.36,3.65.81t3.58,0.83a10.28,10.28,0,0,1,5.33,3,7.36,7.36,0,0,1,1.68,4.91,8.4,8.4,0,0,1-.84,3.61,8.57,8.57,0,0,1-2.36,3,12.71,12.71,0,0,1-3.85,2.1A16.76,16.76,0,0,1,11.67,121.11Z"/><path d="M37.64,120.54V93H25.76V89.29H54.2V93H42.33v27.56H37.64Z"/><path d="M52.26,120.54L64.18,89.29H70l11.92,31.25H76.94l-3.2-8.72H60.21L57,120.54H52.26Zm20.16-12.28L67,93.52l-5.44,14.74h10.9Z"/><path d="M113.57,105a15.35,15.35,0,0,1-2,7.72,14.26,14.26,0,0,1-5.25,5.37,17.71,17.71,0,0,1-5.44,2,40.53,40.53,0,0,1-7.06.5H85.73V89.29h8a36.1,36.1,0,0,1,7.81.66,17.58,17.58,0,0,1,4.83,1.82,14.14,14.14,0,0,1,5.29,5.3A15.73,15.73,0,0,1,113.57,105Zm-4.87-.06a12.93,12.93,0,0,0-1.35-6.15,9.5,9.5,0,0,0-4-4,14.73,14.73,0,0,0-4-1.44A27,27,0,0,0,94,92.89H90.41V117H94a30.16,30.16,0,0,0,5.48-.44,12.56,12.56,0,0,0,4.3-1.63,9.49,9.49,0,0,0,3.68-3.91A13.4,13.4,0,0,0,108.69,104.89Z"/><path d="M127.18,120.54V93H115.3V89.29h28.44V93H131.86v27.56h-4.69Z"/><path class="cls-2" d="M399.21,320.3V292.74h-10.5v-3.69h25.16v3.69h-10.5V320.3h-4.16Z"/><path class="cls-2" d="M413.25,320.3l10.55-31.25h5.12l10.55,31.25h-4.39l-2.83-8.72h-12l-2.83,8.72h-4.19ZM431.09,308l-4.84-14.74L421.43,308h9.66Z"/><path class="cls-2" d="M454.29,321a14.51,14.51,0,0,1-4.81-.72,9.32,9.32,0,0,1-3.51-2.15,9,9,0,0,1-2.31-3.92,20.06,20.06,0,0,1-.67-5.62v-19.5h4.16v19.49a20.54,20.54,0,0,0,.27,3.64,6.92,6.92,0,0,0,1.07,2.65,5.3,5.3,0,0,0,2.28,1.91,8.52,8.52,0,0,0,3.52.65,8.72,8.72,0,0,0,3.47-.65,5.24,5.24,0,0,0,2.35-1.91,7.44,7.44,0,0,0,1.06-2.64,18.76,18.76,0,0,0,.29-3.54v-19.6h4.16v19.5a20.61,20.61,0,0,1-.66,5.58,8.72,8.72,0,0,1-2.32,3.95,9.59,9.59,0,0,1-3.48,2.16A14.49,14.49,0,0,1,454.29,321Z"/><path class="cls-2" d="M495.94,320.3h-4.65l-13.85-26.95V320.3h-3.87V289.05h5.89l12.61,24.74V289.05h3.87V320.3Z"/><path class="cls-2" d="M514.93,321a14.49,14.49,0,0,1-4.81-.72,9.33,9.33,0,0,1-3.51-2.15,9.08,9.08,0,0,1-2.31-3.92,20.13,20.13,0,0,1-.67-5.62v-19.5h4.16v19.49a20.51,20.51,0,0,0,.27,3.64,6.86,6.86,0,0,0,1.07,2.65,5.31,5.31,0,0,0,2.28,1.91,8.53,8.53,0,0,0,3.52.65,8.71,8.71,0,0,0,3.47-.65,5.23,5.23,0,0,0,2.35-1.91,7.4,7.4,0,0,0,1.06-2.64,18.76,18.76,0,0,0,.28-3.54v-19.6h4.16v19.5a20.61,20.61,0,0,1-.66,5.58,8.73,8.73,0,0,1-2.32,3.95,9.6,9.6,0,0,1-3.48,2.16A14.51,14.51,0,0,1,514.93,321Z"/><path class="cls-2" d="M542.75,320.87a20.6,20.6,0,0,1-5.79-.71,28.33,28.33,0,0,1-4.48-1.73v-5.22h0.29a15.09,15.09,0,0,0,4.67,3,13.28,13.28,0,0,0,5,1.06,8.11,8.11,0,0,0,5.21-1.44,4.65,4.65,0,0,0,1.77-3.79,4.77,4.77,0,0,0-.93-3,5.54,5.54,0,0,0-3-1.74q-1.45-.42-2.65-0.69t-3-.73a14.34,14.34,0,0,1-2.9-1.07,8.15,8.15,0,0,1-2.27-1.7,7.34,7.34,0,0,1-1.5-2.42,9,9,0,0,1-.54-3.22,8.11,8.11,0,0,1,3-6.37,11.13,11.13,0,0,1,7.57-2.57,22.71,22.71,0,0,1,5,.53,20,20,0,0,1,4.34,1.49v5h-0.32a13.82,13.82,0,0,0-3.83-2.39,12.13,12.13,0,0,0-4.9-1,7.57,7.57,0,0,0-4.69,1.35A4.26,4.26,0,0,0,537,297a4.57,4.57,0,0,0,1.05,3.17,6.17,6.17,0,0,0,3.06,1.72q1.32,0.36,3.24.81t3.17,0.83a8.92,8.92,0,0,1,4.73,3,8,8,0,0,1,1.49,4.91A9.32,9.32,0,0,1,553,315a8.53,8.53,0,0,1-2.09,3,11,11,0,0,1-3.41,2.1A13.33,13.33,0,0,1,542.75,320.87Z"/><path d="M56.11,212.09a33.23,33.23,0,0,1,6.51,11.75,50.93,50.93,0,0,1,2.32,16,51.57,51.57,0,0,1-2.27,15.81,32.26,32.26,0,0,1-6.56,11.85,27.66,27.66,0,0,1-10.48,7.42,35.24,35.24,0,0,1-13.19,2.39A34.83,34.83,0,0,1,19,274.85,27.43,27.43,0,0,1,8.78,267.5a32.7,32.7,0,0,1-6.51-11.8A51.44,51.44,0,0,1,0,239.85a50.39,50.39,0,0,1,2.29-16,34.74,34.74,0,0,1,6.53-11.8,27.66,27.66,0,0,1,10.23-7.28,34.57,34.57,0,0,1,13.39-2.49A34.14,34.14,0,0,1,46,204.88,28.26,28.26,0,0,1,56.11,212.09Zm-1.36,27.76a46.25,46.25,0,0,0-1.58-12.68A26.34,26.34,0,0,0,48.74,218a18.5,18.5,0,0,0-7-5.59,22.12,22.12,0,0,0-9.23-1.86,22.12,22.12,0,0,0-9.28,1.81,19.22,19.22,0,0,0-7,5.64,26,26,0,0,0-4.46,9.24,46.89,46.89,0,0,0-1.55,12.58q0,14.18,6.06,21.7t16.25,7.52q10.19,0,16.22-7.52T54.75,239.85Z"/><path d="M127.68,253.72a20.79,20.79,0,0,1-2.07,9.48A19.22,19.22,0,0,1,120,270a26,26,0,0,1-8.88,4.52,46.38,46.38,0,0,1-12.23,1.33H77.86v-72H97.35a100,100,0,0,1,11.77.51,22.31,22.31,0,0,1,7.52,2.39,13.46,13.46,0,0,1,5.77,5.44,16.32,16.32,0,0,1,1.83,7.9,15.74,15.74,0,0,1-2.74,9.09,18.46,18.46,0,0,1-7.58,6.29v0.39a18.39,18.39,0,0,1,10.16,6.36A18.2,18.2,0,0,1,127.68,253.72Zm-13.62-32.3a10.63,10.63,0,0,0-.89-4.52,6.65,6.65,0,0,0-2.86-3A13.62,13.62,0,0,0,105,212.3q-2.91-.29-8-0.29H87.61v21.06h11.1a35.77,35.77,0,0,0,6.76-.46A14,14,0,0,0,110,230.7a7.8,7.8,0,0,0,3.16-3.67A14.72,14.72,0,0,0,114.05,221.43Zm3.44,32.68a16.37,16.37,0,0,0-1.18-6.69,9.8,9.8,0,0,0-4.78-4.47,14.77,14.77,0,0,0-5.05-1.55,67.81,67.81,0,0,0-7.76-.34H87.61v26.56h7.94a68.66,68.66,0,0,0,10.11-.58,16,16,0,0,0,6.51-2.46,12.3,12.3,0,0,0,4-4.27A13.1,13.1,0,0,0,117.49,254.11Z"/><path d="M140.31,275.82v-72h46v8.5H150.06v19.75h33.81v8.5H150.06v26.75h36.25v8.5h-46Z"/><path d="M255.65,275.82H243L219.69,247.2H208.53v28.62h-9.75v-72h19a69.28,69.28,0,0,1,10.59.68,21.05,21.05,0,0,1,8.12,3.14,18.14,18.14,0,0,1,6.09,6.24,18.43,18.43,0,0,1,2.25,9.48,21.05,21.05,0,0,1-4.1,13.25,24,24,0,0,1-11.17,7.88Zm-21.06-51.73a13,13,0,0,0-1.14-5.57,9.47,9.47,0,0,0-3.51-4,13.76,13.76,0,0,0-4.85-1.91,35.75,35.75,0,0,0-6.87-.56h-9.69V239.2h8.61a36.1,36.1,0,0,0,7.57-.72,11.68,11.68,0,0,0,5.74-3,12.4,12.4,0,0,0,3.14-4.83A19.27,19.27,0,0,0,234.59,224.09Z"/><path d="M286.94,277.32a34.66,34.66,0,0,1-11.3-1.67,22,22,0,0,1-8.24-5,20.81,20.81,0,0,1-5.43-9,45.48,45.48,0,0,1-1.58-12.94V203.82h9.75v44.91a46.29,46.29,0,0,0,.64,8.39,15.7,15.7,0,0,0,2.52,6.12,12.4,12.4,0,0,0,5.36,4.4,20.38,20.38,0,0,0,8.27,1.5,20.82,20.82,0,0,0,8.15-1.5,12.25,12.25,0,0,0,5.53-4.4,16.9,16.9,0,0,0,2.49-6.09,42.49,42.49,0,0,0,.67-8.17V203.82h9.75v44.92A46.68,46.68,0,0,1,312,261.61a20,20,0,0,1-5.45,9.09,22.57,22.57,0,0,1-8.16,5A34.61,34.61,0,0,1,286.94,277.32Z"/><path d="M383.61,275.82H370.93L347.65,247.2H336.48v28.62h-9.75v-72h19a69.28,69.28,0,0,1,10.59.68,21.05,21.05,0,0,1,8.12,3.14,18.15,18.15,0,0,1,6.09,6.24,18.44,18.44,0,0,1,2.25,9.48,21.05,21.05,0,0,1-4.1,13.25,24,24,0,0,1-11.17,7.88Zm-21.06-51.73a13,13,0,0,0-1.14-5.57,9.47,9.47,0,0,0-3.51-4,13.76,13.76,0,0,0-4.85-1.91,35.75,35.75,0,0,0-6.87-.56h-9.69V239.2h8.61a36.1,36.1,0,0,0,7.57-.72,11.68,11.68,0,0,0,5.74-3,12.4,12.4,0,0,0,3.14-4.83A19.27,19.27,0,0,0,362.55,224.09Z"/><path d="M413.54,277.13a49.44,49.44,0,0,1-13.6-1.62,67.7,67.7,0,0,1-10.54-4v-12h0.69a35.41,35.41,0,0,0,11,6.92,31.61,31.61,0,0,0,11.79,2.45q8.09,0,12.23-3.32a10.64,10.64,0,0,0,4.14-8.74,10.91,10.91,0,0,0-2.17-7,12.92,12.92,0,0,0-6.89-4q-3.4-1-6.22-1.6t-7.06-1.69a34.07,34.07,0,0,1-6.81-2.47,19.15,19.15,0,0,1-5.33-3.92,16.85,16.85,0,0,1-3.53-5.59,20.29,20.29,0,0,1-1.26-7.42,18.53,18.53,0,0,1,7-14.68q7-5.92,17.76-5.92a54.2,54.2,0,0,1,11.66,1.21,47.38,47.38,0,0,1,10.19,3.44v11.48h-0.74a32.46,32.46,0,0,0-9-5.52,28.73,28.73,0,0,0-11.48-2.36q-6.8,0-11,3.12a9.76,9.76,0,0,0-4.19,8.2,10.46,10.46,0,0,0,2.46,7.31,14.43,14.43,0,0,0,7.14,4q3.11,0.82,7.6,1.86t7.45,1.91q7.6,2.27,11.1,6.87a18.12,18.12,0,0,1,3.5,11.32,21,21,0,0,1-1.75,8.32,19.61,19.61,0,0,1-4.91,7,25.81,25.81,0,0,1-8,4.84A31.84,31.84,0,0,1,413.54,277.13Z"/><path d="M452.18,275.82v-72h46v8.5H461.93v19.75h33.81v8.5H461.93v26.75h36.25v8.5h-46Z"/><path d="M553.22,275.82H510.65v-72h9.75v63.5h32.81v8.5Z"/><polygon class="cls-3" points="14.06 168.98 35.03 177.09 35.07 167.66 42.3 159.99 62.62 154.49 82.73 159.97 88.69 167.91 88.68 177.99 103.95 163.83 141.29 163.73 159.34 171.99 159.31 178.96 159.27 174.43 158.54 170.84 190.21 163.86 192.26 159.25 214.4 159.3 216.67 163.86 246.79 170.84 242.84 173.43 247.07 178.34 243.09 172.12 260.12 148.06 272.6 148.06 285.93 168.87 315.54 153.47 347.12 173.54 347.2 96.74 355.22 96.63 355.22 76.81 361.11 70.07 370.6 13.67 379.65 69.71 385 76.63 385 96.4 392.15 96.74 392.19 153.75 471.29 148.44 489.91 159.23 533.69 160 551.68 188.25 1.76 188.25 14.06 168.98"/><path class="cls-4" d="M259.53,152.55l0-16.49-2.83-1.44,2.83-2.24c0.23-1.89,0-6.11,3.57-6.65a5.15,5.15,0,0,0,3.62-2.74c0.34,1.53,2.41,2.43,3.57,2.64,3.56,0.65,3.29,5.1,3.56,6.76l2.84,2.24-2.84,1.44V154.8H259.53"/><path class="cls-1" d="M259.53,152.55l0-16.49-2.83-1.44,2.83-2.24c0.23-1.89,0-6.11,3.57-6.65a5.15,5.15,0,0,0,3.62-2.74c0.34,1.53,2.41,2.43,3.57,2.64,3.56,0.65,3.29,5.1,3.56,6.76l2.84,2.24-2.84,1.44V154.8H259.53"/><path class="cls-4" d="M259.92,152.59q0-8.24,0-16.49a0.41,0.41,0,0,0-.25-0.4l-1.84-.93c-1-.52-0.89.16-0.15-0.42,0.54-.43,2-1.14,2.21-1.82,0.94-2.53-.69-5.24,3.27-6.4a5.52,5.52,0,0,0,3.44-2.18c-0.19.32,2.35,1.68,2.54,1.77,3.43,1.69,3.93,3.51,4.31,6.74,0.06,0.51,1.28,1.13,1.58,1.37,0.83,0.65.87,0.76,1.18,0.6l-2.55,1.29a0.39,0.39,0,0,0-.22.32v17.77c0,1.18.57,0.62-.3,0.62H259.57c-0.5,0-.58.78-0.07,0.78h14.36a0.4,0.4,0,0,0,.43-0.35V137.57c0-1.93.77-1.67,2.62-2.6a0.4,0.4,0,0,0,.06-0.67l-2.63-2.07c-0.49-.39-0.54-3.44-0.75-4.13-1-3.32-4.93-2.35-6.46-5.28a0.39,0.39,0,0,0-.67-0.06c-2,3.29-5.61,2.18-6.82,6.11-0.19.61,0,3-.5,3.38l-2.62,2.07a0.4,0.4,0,0,0,.12.66c1.07,0.54,2.58.8,2.58,1.69q0,2.57,0,5.15,0,5.34,0,10.69c0,0.5.78,0.58,0.78,0.07h0Z"/><polyline class="cls-5" points="266.76 123.42 266.76 120.09 267.17 120.09 266.76 111.22 266.32 120.09 266.76 120.09"/><polygon class="cls-6" points="508.3 163.54 508.3 151.07 513.23 132.03 518.12 151.07 518.12 163.54 508.3 163.54"/><path class="cls-7" d="M349.9,79.81c3.31-1.41,10.51-7.22,11.46-8.13,1.89-1.79,9.3-51.39,9.3-51.39s5.77,48.95,8.69,51.41c1.85,1.55,12,8.12,12,8.12"/><path class="cls-8" d="M375,17.25a4.48,4.48,0,0,1-4.36,4.26,4.26,4.26,0,1,1,0-8.53A4.48,4.48,0,0,1,375,17.25Z"/><line class="cls-9" x1="370.76" x2="370.76" y2="16.86"/><path class="cls-4" d="M138,186.68V152.55l5.5-4.32c-9.72-3.65-.5-10.43,0-11.77V121.18c6.8-6.48,4.13-6.77,11.07,0v15.28c0.38,1.71,9.54,7.92,0,11.77l5.48,4.35L160,186.48l-22-3.34"/><path class="cls-1" d="M138,186.68V152.55l5.5-4.32c-9.72-3.65-.5-10.43,0-11.77V121.18c6.8-6.48,4.13-6.77,11.07,0v15.28c0.38,1.71,9.54,7.92,0,11.77l5.48,4.35L160,186.48l-22-3.34"/><path class="cls-4" d="M138.62,186.73V153.86c0-2.1,3.14-3.49,5.29-5.18a0.61,0.61,0,0,0-.18-1c-6.7-2.94-2.7-7.07.13-10.59,0.72-.89.27-2.93,0.27-3.94v-9.32c0-3.2,1.79-4.34,4.14-6.56,1-.9,5.73,3.19,5.73,4V133c0,1.24-.31,2.85.19,4,1.73,4,8.11,6.93.15,10.64a0.61,0.61,0,0,0-.09,1l2.37,1.88c0.69,0.55,2.86,2.63,2.86,2q0,2.72,0,5.45,0,11.08,0,22.16,0,3,0,5.92c0,0.31,1.08-.14-0.19-0.33l-3.75-.57-17.4-2.64c-0.77-.12-0.88,1.08-0.11,1.2l22,3.34a0.6,0.6,0,0,0,.66-0.54q0-16.93.06-33.87c0-1.28-3.23-3-4.09-3.63-2.38-1.89-.72-0.25.92-1.72a5.2,5.2,0,0,0,2-3.42c0.36-2.46-2.26-5-3.67-6.63-1.62-1.89-.65-6.53-0.65-8.89s0.4-5,0-7.3c-0.23-1.3-4.5-5.5-6.33-5.44-1.62.06-5.47,4.19-5.89,5.33-0.81,2.17,0,6,0,8.29,0,1.8.83,6-.34,7.49-1.54,1.92-4.52,4.38-4.08,7.2a4.25,4.25,0,0,0,1.27,2.72,8,8,0,0,0,2.1,1.48c0.81,0.35,1.7-.72.27,0.4-1,.75-4.7,2.71-4.7,4.08v34c0,0.77,1.2.89,1.2,0.11h0Z"/></svg>