<?xml version="1.0" encoding="utf-8"?>
<!-- Generator: Adobe Illustrator 15.0.0, SVG Export Plug-In . SVG Version: 6.00 Build 0)  -->
<!DOCTYPE svg PUBLIC "-//W3C//DTD SVG 1.1//EN" "http://www.w3.org/Graphics/SVG/1.1/DTD/svg11.dtd">
<svg xmlns="http://www.w3.org/2000/svg" xmlns:xlink="http://www.w3.org/1999/xlink" version="1.1" id="Layer_1" x="0px" y="0px" width="26px" height="26px" viewBox="0 0 26 26" enable-background="new 0 0 26 26" xml:space="preserve">

<path fill="none" stroke="#000000" stroke-width="2" stroke-linecap="round" stroke-linejoin="round" stroke-miterlimit="10" d="  M20.086,9.164c0,0-7.947,7.947-9.061,9.061c-1.111,1.111-3.027,1.847-4.469,0.406c-1.44-1.441-0.836-3.227,0.406-4.469  c0.25-0.25,6.963-6.963,8.248-8.248c2.486-2.486,4.828-4.11,7.313-1.625c1.411,1.41,4.148,3.164,0,7.313s-7.33,7.33-9.061,9.061  c-3.188,3.188-6.306,4.763-9.832,1.236c-3.527-3.527-2.878-7.561,0.961-11.399c2.24-2.239,6.838-6.423,6.838-6.423"/>
</svg>
