<?xml version="1.0" encoding="UTF-8" standalone="no"?>
<svg
   xmlns:dc="http://purl.org/dc/elements/1.1/"
   xmlns:cc="http://creativecommons.org/ns#"
   xmlns:rdf="http://www.w3.org/1999/02/22-rdf-syntax-ns#"
   xmlns:svg="http://www.w3.org/2000/svg"
   xmlns="http://www.w3.org/2000/svg"
   xmlns:sodipodi="http://sodipodi.sourceforge.net/DTD/sodipodi-0.dtd"
   xmlns:inkscape="http://www.inkscape.org/namespaces/inkscape"
   inkscape:version="1.0 (4035a4fb49, 2020-05-01)"
   height="14"
   width="12"
   sodipodi:docname="collapse.svg"
   id="svg22"
   version="1.1"
   viewBox="0 0 12 14">
  <metadata
     id="metadata28">
    <rdf:RDF>
      <cc:Work
         rdf:about="">
        <dc:format>image/svg+xml</dc:format>
        <dc:type
           rdf:resource="http://purl.org/dc/dcmitype/StillImage" />
        <dc:title />
      </cc:Work>
    </rdf:RDF>
  </metadata>
  <defs
     id="defs26" />
  <sodipodi:namedview
     inkscape:current-layer="svg22"
     inkscape:window-maximized="1"
     inkscape:window-y="-8"
     inkscape:window-x="1912"
     inkscape:cy="199.35"
     inkscape:cx="105.83823"
     inkscape:zoom="1.6601562"
     showgrid="false"
     id="namedview24"
     inkscape:window-height="1017"
     inkscape:window-width="1920"
     inkscape:pageshadow="2"
     inkscape:pageopacity="0"
     guidetolerance="10"
     gridtolerance="10"
     objecttolerance="10"
     borderopacity="1"
     bordercolor="#666666"
     pagecolor="#ffffff"
     inkscape:document-rotation="0" />
  <path
     id="path20"
     d="m 6.6373008,6.9894657 5.0984072,4.7755203 c 0.352389,0.330072 0.352389,0.863807 0,1.190369 l -0.847236,0.793579 c -0.35239,0.330072 -0.9222115,0.330072 -1.2708525,0 L 6,10.367444 2.3861293,13.752445 c -0.3523898,0.330073 -0.9222118,0.330073 -1.2708528,0 L 0.26429241,12.958866 c -0.35238988,-0.330073 -0.35238988,-0.863808 0,-1.190368 L 5.3626992,6.9929771 C 5.715089,6.6593929 6.284911,6.6593929 6.6373008,6.9894657 Z M 5.3626992,0.24755455 0.26429241,5.023075 c -0.35238988,0.3300726 -0.35238988,0.8638073 0,1.1903686 L 1.1115276,7.0070227 c 0.3523899,0.3300728 0.9222119,0.3300728 1.2708529,0 L 5.9962512,3.6220215 9.6101218,7.0070227 c 0.3523899,0.3300728 0.9222122,0.3300728 1.2708532,0 L 11.72821,6.2134436 c 0.35239,-0.3300728 0.35239,-0.8638073 0,-1.1903686 L 6.6298032,0.24755455 c -0.3448922,-0.33007273 -0.9147142,-0.33007273 -1.267104,0 z"
     style="stroke-width:0.0362818" />
</svg>
