<?xml version="1.0" encoding="iso-8859-1"?>
<!-- Generator: Adobe Illustrator 20.1.0, SVG Export Plug-In . SVG Version: 6.00 Build 0)  -->
<svg version="1.1" id="Ebene_1" xmlns="http://www.w3.org/2000/svg" xmlns:xlink="http://www.w3.org/1999/xlink" x="0px" y="0px"
	 viewBox="0 0 354.331 119.055" style="enable-background:new 0 0 354.331 119.055;" xml:space="preserve">
<g>
	<path d="M102.047,104.592h3.115v11.348h7.06v2.811h-10.175V104.592z"/>
	<path d="M119.771,104.491h2.872l6.069,14.261h-3.257l-1.294-3.176h-5.988l-1.294,3.176h-3.176L119.771,104.491z M123.048,112.825
		l-1.881-4.592l-1.881,4.592H123.048z"/>
	<path d="M130.549,104.592h2.872l6.634,8.719v-8.719h3.075v14.16h-2.65l-6.857-9.001v9.001h-3.075V104.592z"/>
	<path d="M146.529,104.592h5.522c1.106,0,2.12,0.179,3.044,0.536s1.72,0.853,2.387,1.487s1.184,1.379,1.547,2.235
		c0.364,0.856,0.546,1.784,0.546,2.781v0.041c0,0.998-0.182,1.928-0.546,2.791c-0.364,0.863-0.88,1.612-1.547,2.246
		s-1.464,1.133-2.387,1.497c-0.924,0.364-1.938,0.546-3.044,0.546h-5.522V104.592z M152.051,115.94c0.634,0,1.214-0.101,1.74-0.303
		c0.526-0.203,0.974-0.492,1.345-0.87c0.371-0.377,0.661-0.822,0.87-1.335c0.209-0.512,0.313-1.085,0.313-1.72v-0.04
		c0-0.621-0.105-1.193-0.313-1.72c-0.21-0.526-0.5-0.977-0.87-1.355c-0.371-0.378-0.819-0.671-1.345-0.88
		c-0.526-0.209-1.106-0.314-1.74-0.314h-2.407v8.537H152.051z"/>
	<path d="M162.347,104.592h3.115v6.19l5.745-6.19h3.762l-5.765,6.008l6.028,8.152h-3.742l-4.389-6.028l-1.638,1.699v4.328h-3.115
		V104.592z"/>
	<path d="M177.114,104.592h6.472c1.794,0,3.169,0.479,4.127,1.436c0.809,0.809,1.214,1.888,1.214,3.237v0.04
		c0,1.146-0.28,2.081-0.84,2.802c-0.559,0.722-1.292,1.251-2.194,1.588l3.459,5.057h-3.641l-3.034-4.531h-0.041h-2.407v4.531h-3.115
		V104.592z M183.384,111.469c0.769,0,1.358-0.182,1.77-0.546c0.411-0.364,0.617-0.849,0.617-1.456v-0.041
		c0-0.674-0.216-1.18-0.648-1.517c-0.431-0.337-1.031-0.506-1.8-0.506h-3.095v4.066H183.384z"/>
	<path d="M191.738,104.592h10.66v2.771h-7.586v2.872h6.675v2.771h-6.675v2.973h7.687v2.771h-10.761V104.592z"/>
	<path d="M205.433,104.592h3.115v14.16h-3.115V104.592z"/>
	<path d="M217.145,118.954c-1.079,0-2.138-0.185-3.176-0.556c-1.039-0.371-1.982-0.941-2.832-1.709l1.841-2.205
		c0.647,0.526,1.311,0.944,1.992,1.254c0.68,0.31,1.426,0.465,2.235,0.465c0.647,0,1.149-0.117,1.507-0.354
		c0.357-0.236,0.536-0.563,0.536-0.981v-0.041c0-0.202-0.037-0.381-0.112-0.536c-0.074-0.155-0.216-0.3-0.426-0.435
		c-0.21-0.135-0.5-0.27-0.872-0.405c-0.372-0.134-0.855-0.276-1.45-0.425c-0.717-0.175-1.365-0.371-1.948-0.586
		c-0.581-0.216-1.075-0.482-1.48-0.799c-0.406-0.317-0.719-0.711-0.942-1.183c-0.223-0.472-0.335-1.059-0.335-1.76v-0.041
		c0-0.647,0.12-1.231,0.362-1.75c0.241-0.519,0.579-0.967,1.014-1.345c0.436-0.377,0.956-0.668,1.561-0.87
		c0.604-0.202,1.271-0.303,1.999-0.303c1.039,0,1.993,0.155,2.863,0.465c0.87,0.31,1.669,0.755,2.397,1.335l-1.618,2.346
		c-0.634-0.431-1.254-0.772-1.861-1.021c-0.607-0.249-1.214-0.374-1.821-0.374c-0.607,0-1.061,0.118-1.365,0.354
		c-0.303,0.236-0.454,0.529-0.454,0.88v0.04c0,0.229,0.044,0.428,0.131,0.597c0.088,0.169,0.246,0.321,0.476,0.456
		c0.23,0.135,0.544,0.263,0.944,0.384c0.399,0.121,0.902,0.263,1.511,0.425c0.717,0.189,1.356,0.401,1.917,0.637
		c0.561,0.236,1.034,0.519,1.419,0.849c0.385,0.331,0.676,0.718,0.872,1.163c0.196,0.445,0.294,0.978,0.294,1.598v0.04
		c0,0.701-0.127,1.325-0.381,1.871c-0.255,0.546-0.61,1.005-1.066,1.375c-0.456,0.371-0.999,0.654-1.631,0.85
		C218.614,118.856,217.913,118.954,217.145,118.954z"/>
	<path d="M231.102,104.592h3.115v5.603h5.745v-5.603h3.115v14.16h-3.115v-5.684h-5.745v5.684h-3.115V104.592z"/>
	<path d="M246.475,104.592h10.66v2.771h-7.586v2.872h6.676v2.771h-6.676v2.973h7.687v2.771h-10.761V104.592z"/>
	<path d="M260.169,104.592h3.115v14.16h-3.115V104.592z"/>
	<path d="M266.214,104.592h3.115v11.348h7.06v2.811h-10.174V104.592z"/>
	<path d="M279.346,104.592h6.562c1.629,0,2.86,0.418,3.695,1.254c0.646,0.647,0.969,1.45,0.969,2.407v0.04
		c0,0.405-0.05,0.762-0.15,1.073c-0.101,0.31-0.235,0.59-0.402,0.839c-0.167,0.25-0.361,0.469-0.583,0.658
		c-0.221,0.189-0.459,0.351-0.713,0.486c0.819,0.31,1.463,0.731,1.933,1.264c0.47,0.533,0.705,1.271,0.705,2.215v0.041
		c0,0.647-0.124,1.214-0.374,1.699c-0.249,0.486-0.606,0.89-1.07,1.214c-0.465,0.324-1.023,0.566-1.676,0.728
		c-0.653,0.162-1.376,0.243-2.171,0.243h-6.725V104.592z M285.252,110.317c0.688,0,1.234-0.118,1.638-0.354
		c0.404-0.236,0.607-0.617,0.607-1.143v-0.041c0-0.472-0.175-0.833-0.526-1.082c-0.351-0.249-0.856-0.374-1.517-0.374h-3.075v2.994
		H285.252z M286.082,116.021c0.688,0,1.227-0.124,1.619-0.374c0.39-0.249,0.586-0.637,0.586-1.163v-0.041
		c0-0.472-0.182-0.846-0.546-1.122c-0.364-0.276-0.951-0.415-1.76-0.415h-3.6v3.115H286.082z"/>
	<path d="M293.951,104.592h6.473c1.793,0,3.169,0.479,4.126,1.436c0.809,0.809,1.214,1.888,1.214,3.237v0.04
		c0,1.146-0.28,2.081-0.84,2.802c-0.56,0.722-1.292,1.251-2.194,1.588l3.459,5.057h-3.641l-3.034-4.531h-0.041h-2.407v4.531h-3.115
		V104.592z M300.221,111.469c0.769,0,1.358-0.182,1.77-0.546c0.411-0.364,0.617-0.849,0.617-1.456v-0.041
		c0-0.674-0.216-1.18-0.647-1.517c-0.432-0.337-1.032-0.506-1.801-0.506h-3.095v4.066H300.221z"/>
	<path d="M315.453,118.994c-1.092,0-2.097-0.192-3.014-0.576c-0.917-0.385-1.709-0.903-2.376-1.558
		c-0.668-0.654-1.187-1.423-1.558-2.306c-0.371-0.883-0.557-1.831-0.557-2.842v-0.04c0-1.012,0.189-1.959,0.566-2.842
		s0.9-1.659,1.568-2.326s1.464-1.193,2.387-1.577c0.923-0.385,1.932-0.577,3.024-0.577s2.097,0.192,3.014,0.577
		c0.917,0.384,1.709,0.903,2.377,1.557c0.668,0.654,1.186,1.423,1.558,2.306c0.371,0.884,0.556,1.831,0.556,2.842v0.041
		c0,1.011-0.189,1.959-0.566,2.842c-0.378,0.884-0.901,1.659-1.568,2.326s-1.463,1.193-2.387,1.578
		C317.553,118.802,316.545,118.994,315.453,118.994z M315.494,116.122c0.62,0,1.193-0.114,1.719-0.344
		c0.526-0.229,0.974-0.546,1.345-0.951c0.371-0.404,0.661-0.873,0.87-1.406c0.209-0.532,0.314-1.102,0.314-1.709v-0.04
		c0-0.607-0.105-1.18-0.314-1.72c-0.209-0.539-0.505-1.012-0.89-1.416c-0.384-0.404-0.839-0.725-1.365-0.961
		c-0.526-0.235-1.099-0.354-1.719-0.354c-0.634,0-1.211,0.115-1.73,0.344c-0.519,0.229-0.964,0.546-1.335,0.951
		c-0.371,0.405-0.661,0.873-0.87,1.406c-0.209,0.533-0.313,1.103-0.313,1.709v0.041c0,0.607,0.104,1.18,0.313,1.719
		c0.209,0.54,0.506,1.012,0.89,1.416c0.385,0.404,0.836,0.725,1.355,0.961C314.283,116.004,314.859,116.122,315.494,116.122z"/>
	<path d="M325.769,104.592h2.872l6.635,8.719v-8.719h3.075v14.16h-2.65l-6.857-9.001v9.001h-3.075V104.592z"/>
	<path d="M341.749,104.592h2.872l6.635,8.719v-8.719h3.075v14.16h-2.65l-6.857-9.001v9.001h-3.075V104.592z"/>
</g>
<g>
	<rect x="136.062" y="0" style="fill:#85BC21;" width="17.008" height="85.039"/>
	<rect x="170.078" y="0" style="fill:#C7D300;" width="17.008" height="85.039"/>
	<rect x="204.094" y="0" style="fill:#E8E11C;" width="17.008" height="85.039"/>
	<polygon style="fill:#E41E15;" points="0,0 0,119.055 17.008,119.055 17.008,17.008 102.047,17.008 102.047,85.039 119.055,85.039 
		119.055,0 	"/>
</g>
<g>
</g>
<g>
</g>
<g>
</g>
<g>
</g>
<g>
</g>
<g>
</g>
</svg>
