<?xml version="1.0" encoding="UTF-8" standalone="no"?>
<!-- Generator: Adobe Illustrator 15.0.0, SVG Export Plug-In . SVG Version: 6.00 Build 0)  -->

<svg
   xmlns:dc="http://purl.org/dc/elements/1.1/"
   xmlns:cc="http://creativecommons.org/ns#"
   xmlns:rdf="http://www.w3.org/1999/02/22-rdf-syntax-ns#"
   xmlns:svg="http://www.w3.org/2000/svg"
   xmlns="http://www.w3.org/2000/svg"
   xmlns:sodipodi="http://sodipodi.sourceforge.net/DTD/sodipodi-0.dtd"
   xmlns:inkscape="http://www.inkscape.org/namespaces/inkscape"
   version="1.1"
   id="Layer_1"
   x="0px"
   y="0px"
   width="22"
   height="22"
   viewBox="0 0 22 22"
   enable-background="new 0 0 26 26"
   xml:space="preserve"
   inkscape:version="0.91 r13725"
   sodipodi:docname="printerWhite.svg"><metadata
     id="metadata17"><rdf:RDF><cc:Work
         rdf:about=""><dc:format>image/svg+xml</dc:format><dc:type
           rdf:resource="http://purl.org/dc/dcmitype/StillImage" /><dc:title></dc:title></cc:Work></rdf:RDF></metadata><defs
     id="defs15" /><sodipodi:namedview
     pagecolor="#ffffff"
     bordercolor="#666666"
     borderopacity="1"
     objecttolerance="10"
     gridtolerance="10"
     guidetolerance="10"
     inkscape:pageopacity="0"
     inkscape:pageshadow="2"
     inkscape:window-width="1920"
     inkscape:window-height="1018"
     id="namedview13"
     showgrid="false"
     inkscape:zoom="9.0769231"
     inkscape:cx="-4.9576271"
     inkscape:cy="12.999993"
     inkscape:window-x="1912"
     inkscape:window-y="-8"
     inkscape:window-maximized="1"
     inkscape:current-layer="Layer_1"
     fit-margin-top="0"
     fit-margin-left="0"
     fit-margin-right="0"
     fit-margin-bottom="0" /><path
     stroke-miterlimit="10"
     d="m 17.75232,7.615398 -13.538473,0 0,-5.076934 c 0,-0.934152 0.758153,-1.69230801 1.692306,-1.69230801 l 10.153847,0 c 0.935,0 1.69232,0.75815601 1.69232,1.69230801 l 0,5.076934 z"
     id="path3"
     style="fill:none;stroke:#ffffff;stroke-width:1.69230652;stroke-miterlimit:10;stroke-opacity:1"
     inkscape:connector-curvature="0" /><path
     stroke-miterlimit="10"
     d="m 4.213847,11.846164 13.538473,0 0,7.615363 c 0,0.934157 -0.75732,1.692317 -1.69232,1.692317 l -10.153847,0 c -0.934153,0 -1.692306,-0.75816 -1.692306,-1.692317 l 0,-7.615363 z"
     id="path5"
     style="fill:none;stroke:#ffffff;stroke-width:1.69230652;stroke-miterlimit:10;stroke-opacity:1"
     inkscape:connector-curvature="0" /><line
     stroke-miterlimit="10"
     x1="6.7692261"
     y1="15.230778"
     x2="15.230759"
     y2="15.230778"
     id="line7"
     style="fill:none;stroke:#ffffff;stroke-width:1.69230652;stroke-miterlimit:10;stroke-opacity:1" /><line
     stroke-miterlimit="10"
     x1="6.7692261"
     y1="17.769213"
     x2="12.692299"
     y2="17.769213"
     id="line9"
     style="fill:none;stroke:#ffffff;stroke-width:1.69230652;stroke-miterlimit:10;stroke-opacity:1" /><path
     d="m 19.46153,6.769238 -16.92307,0 C 1.137232,6.769238 0,7.906467 0,9.307684 l 0,5.07692 c 0,1.40124 1.137232,2.53848 2.53846,2.53848 l 0.829232,0 0,-4.23076 15.230778,0 0,4.23076 0.86306,0 c 1.40123,0 2.53847,-1.13724 2.53847,-2.53848 l 0,-5.07692 C 22,7.906467 20.86276,6.769238 19.46153,6.769238 Z m -1.26921,4.230766 c -0.70064,0 -1.26924,-0.5686 -1.26924,-1.26924 0,-0.7006 0.5686,-1.269237 1.26924,-1.269237 0.7006,0 1.26921,0.568637 1.26921,1.269237 0,0.70064 -0.56861,1.26924 -1.26921,1.26924 z"
     id="path11"
     style="fill:#ffffff;fill-opacity:1"
     inkscape:connector-curvature="0" /></svg>