<?xml version="1.0" encoding="UTF-8" standalone="no"?>
<!-- Generator: Adobe Illustrator 15.0.0, SVG Export Plug-In . SVG Version: 6.00 Build 0)  -->

<svg
   xmlns:dc="http://purl.org/dc/elements/1.1/"
   xmlns:cc="http://creativecommons.org/ns#"
   xmlns:rdf="http://www.w3.org/1999/02/22-rdf-syntax-ns#"
   xmlns:svg="http://www.w3.org/2000/svg"
   xmlns="http://www.w3.org/2000/svg"
   xmlns:sodipodi="http://sodipodi.sourceforge.net/DTD/sodipodi-0.dtd"
   xmlns:inkscape="http://www.inkscape.org/namespaces/inkscape"
   version="1.1"
   id="Layer_1"
   x="0px"
   y="0px"
   width="22"
   height="22"
   viewBox="0 0 22 22"
   enable-background="new 0 0 26 26"
   xml:space="preserve"
   inkscape:version="0.91 r13725"
   sodipodi:docname="message_outlineWhite.svg"><metadata
     id="metadata13"><rdf:RDF><cc:Work
         rdf:about=""><dc:format>image/svg+xml</dc:format><dc:type
           rdf:resource="http://purl.org/dc/dcmitype/StillImage" /><dc:title></dc:title></cc:Work></rdf:RDF></metadata><defs
     id="defs11" /><sodipodi:namedview
     pagecolor="#ffffff"
     bordercolor="#666666"
     borderopacity="1"
     objecttolerance="10"
     gridtolerance="10"
     guidetolerance="10"
     inkscape:pageopacity="0"
     inkscape:pageshadow="2"
     inkscape:window-width="1920"
     inkscape:window-height="1018"
     id="namedview9"
     showgrid="false"
     inkscape:zoom="9.0769231"
     inkscape:cx="-4.9576271"
     inkscape:cy="9.0000001"
     inkscape:window-x="1912"
     inkscape:window-y="-8"
     inkscape:window-maximized="1"
     inkscape:current-layer="Layer_1"
     fit-margin-top="0"
     fit-margin-left="0"
     fit-margin-right="0"
     fit-margin-bottom="0" /><g
     id="g3"
     style="fill:#ffffff"
     transform="scale(0.84615385,0.84615385)"><path
       d="m 23,6 c 0.551,0 1,0.449 1,1 l 0,12 c 0,0.551 -0.449,1 -1,1 L 3,20 C 2.449,20 2,19.551 2,19 L 2,7 C 2,6.449 2.449,6 3,6 L 23,6 M 23,4 3,4 C 1.344,4 0,5.344 0,7 l 0,12 c 0,1.656 1.344,3 3,3 l 20,0 c 1.656,0 3,-1.344 3,-3 L 26,7 C 26,5.344 24.656,4 23,4 l 0,0 z"
       id="path5"
       style="fill:#ffffff"
       inkscape:connector-curvature="0" /></g><polygon
     points="25.215,6.848 17.469,12.887 23.875,19.445 16.061,13.863 13,15.857 9.938,13.863 2.124,19.445 8.531,12.887 0.784,6.848 13,13.436 "
     id="polygon7"
     style="fill:#ffffff"
     transform="scale(0.84615385,0.84615385)" /></svg>