<?xml version="1.0" encoding="UTF-8" standalone="no"?>
<!-- Generator: Adobe Illustrator 15.0.0, SVG Export Plug-In . SVG Version: 6.00 Build 0)  -->

<svg
   xmlns:dc="http://purl.org/dc/elements/1.1/"
   xmlns:cc="http://creativecommons.org/ns#"
   xmlns:rdf="http://www.w3.org/1999/02/22-rdf-syntax-ns#"
   xmlns:svg="http://www.w3.org/2000/svg"
   xmlns="http://www.w3.org/2000/svg"
   xmlns:sodipodi="http://sodipodi.sourceforge.net/DTD/sodipodi-0.dtd"
   xmlns:inkscape="http://www.inkscape.org/namespaces/inkscape"
   version="1.1"
   id="Layer_1"
   x="0px"
   y="0px"
   width="22"
   height="22"
   viewBox="0 0 22 22"
   enable-background="new 0 0 26 26"
   xml:space="preserve"
   inkscape:version="0.91 r13725"
   sodipodi:docname="monitor.svg"><metadata
     id="metadata11"><rdf:RDF><cc:Work
         rdf:about=""><dc:format>image/svg+xml</dc:format><dc:type
           rdf:resource="http://purl.org/dc/dcmitype/StillImage" /><dc:title></dc:title></cc:Work></rdf:RDF></metadata><defs
     id="defs9" /><sodipodi:namedview
     pagecolor="#ffffff"
     bordercolor="#666666"
     borderopacity="1"
     objecttolerance="10"
     gridtolerance="10"
     guidetolerance="10"
     inkscape:pageopacity="0"
     inkscape:pageshadow="2"
     inkscape:window-width="1920"
     inkscape:window-height="1018"
     id="namedview7"
     showgrid="false"
     fit-margin-top="0"
     fit-margin-left="0"
     fit-margin-right="0"
     fit-margin-bottom="0"
     inkscape:zoom="9.0769231"
     inkscape:cx="13"
     inkscape:cy="12"
     inkscape:window-x="1912"
     inkscape:window-y="-8"
     inkscape:window-maximized="1"
     inkscape:current-layer="Layer_1" /><path
     d="m 17.769231,21.576923 -13.5384618,0 0,-0.846154 c 0,0 0.3799231,-0.846154 0.8461539,-0.846154 l 11.8461539,0 c 0.466231,0 0.846154,0.379923 0.846154,0.846154 l 0,0.846154 z"
     id="path3"
     style="fill:#ffffff;fill-opacity:1"
     inkscape:connector-curvature="0" /><path
     d="m 19.461538,0.42307713 -16.9230765,0 C 1.1372308,0.42307713 0,1.560308 0,2.9615388 L 0,14.807692 c 0,1.401231 1.1372308,2.538462 2.5384615,2.538462 l 5.923077,0 0,0.846154 c 0,0.46623 0.379923,0.846153 0.8461538,0.846153 l 3.3846157,0 c 0.46623,0 0.846154,-0.436615 0.846154,-0.846153 0,-0.176847 0,-0.517 0,-0.846154 l 5.923076,0 C 20.862769,17.346154 22,16.208923 22,14.807692 L 22,2.9615388 C 22,1.560308 20.862769,0.42307713 19.461538,0.42307713 Z M 1.6923077,13.115385 l 0,-10.1538462 c 0,-0.4662308 0.3799231,-0.8461539 0.8461538,-0.8461539 l 16.9230765,0 c 0.466231,0 0.846154,0.3799231 0.846154,0.8461539 l 0,10.1538462 c 0,0.46623 -0.379923,0.846153 -0.846154,0.846153 l -16.9230765,0 c -0.4662307,0 -0.8461538,-0.379923 -0.8461538,-0.846153 z m 17.7683843,3.415923 c -0.483154,0 -0.875769,-0.392616 -0.875769,-0.877462 0,-0.484 0.392615,-0.877461 0.875769,-0.877461 0.484846,0 0.877462,0.393461 0.877462,0.877461 0,0.484846 -0.392616,0.877462 -0.877462,0.877462 z"
     id="path5"
     style="fill:#ffffff;fill-opacity:1"
     inkscape:connector-curvature="0" /></svg>