<?xml version="1.0" encoding="UTF-8" standalone="no"?>
<!-- Generator: Adobe Illustrator 15.0.0, SVG Export Plug-In . SVG Version: 6.00 Build 0)  -->

<svg
   xmlns:dc="http://purl.org/dc/elements/1.1/"
   xmlns:cc="http://creativecommons.org/ns#"
   xmlns:rdf="http://www.w3.org/1999/02/22-rdf-syntax-ns#"
   xmlns:svg="http://www.w3.org/2000/svg"
   xmlns="http://www.w3.org/2000/svg"
   xmlns:sodipodi="http://sodipodi.sourceforge.net/DTD/sodipodi-0.dtd"
   xmlns:inkscape="http://www.inkscape.org/namespaces/inkscape"
   version="1.1"
   id="Layer_1"
   x="0px"
   y="0px"
   width="16"
   height="22"
   viewBox="0 0 16 22"
   enable-background="new 0 0 26 26"
   xml:space="preserve"
   inkscape:version="0.91 r13725"
   sodipodi:docname="available_updatesWhite.svg"><metadata
     id="metadata23"><rdf:RDF><cc:Work
         rdf:about=""><dc:format>image/svg+xml</dc:format><dc:type
           rdf:resource="http://purl.org/dc/dcmitype/StillImage" /><dc:title></dc:title></cc:Work></rdf:RDF></metadata><defs
     id="defs21" /><sodipodi:namedview
     pagecolor="#ffffff"
     bordercolor="#666666"
     borderopacity="1"
     objecttolerance="10"
     gridtolerance="10"
     guidetolerance="10"
     inkscape:pageopacity="0"
     inkscape:pageshadow="2"
     inkscape:window-width="1920"
     inkscape:window-height="1018"
     id="namedview19"
     showgrid="false"
     inkscape:zoom="45.254834"
     inkscape:cx="11.249074"
     inkscape:cy="7.2115962"
     inkscape:window-x="1912"
     inkscape:window-y="-8"
     inkscape:window-maximized="1"
     inkscape:current-layer="Layer_1"
     fit-margin-top="0.7"
     fit-margin-left="0"
     fit-margin-right="0"
     fit-margin-bottom="0.7"
     showguides="true"
     inkscape:guide-bbox="true"><sodipodi:guide
       position="6.2321276,11.178879"
       orientation="0,1"
       id="guide4152" /><sodipodi:guide
       position="8,11"
       orientation="1,0"
       id="guide4154"
       inkscape:label=""
       inkscape:color="rgb(0,0,255)" /></sodipodi:namedview><path
     d="M 9.1031124,15.60594 C 7.2036659,15.64723 6.2404439,15.065169 6.2404439,15.065169 l 0.814729,-2.962724 c 0,0 0.0532,-0.223137 -0.148494,-0.131023 -0.199315,0.09132 -6.497187,2.978605 -6.497187,2.978605 0,0 -0.1214947,0.05162 -0.044469,0.164375 0.067497,0.104819 3.448703,5.20442 4.034736,6.084264 0.05479,0.08417 0.100849,0.07703 0.129436,-0.0135 0.150876,-0.481215 0.643207,-2.036823 0.84808,-2.753086 6.8775521,1.230829 9.2788591,-4.270578 9.7092521,-5.450586 0.05241,-0.139758 0.01429,-0.160405 -0.09608,-0.05638 -0.652736,0.592386 -3.085012,2.622062 -5.8873306,2.680825 z"
     id="path15"
     style="fill:#ffffff"
     inkscape:connector-curvature="0" /><path
     d="m 6.8066249,6.410456 c 1.9264449,-0.03891 2.9047545,0.547918 2.9047545,0.547918 l -0.841728,3.053249 c 0,0 -0.0532,0.194551 0.149288,0.09132 1.0791586,-0.5407698 6.3796626,-2.9174607 6.5583316,-3.0071917 0.1342,-0.06432 0.06591,-0.220755 0.06591,-0.220755 L 11.622737,0.80581858 c 0,0 -0.1342,-0.16119869 -0.204079,0.030175 C 11.243166,1.3966161 10.781009,2.8561406 10.581694,3.5446106 3.7263769,2.3169583 1.2575727,7.690518 0.7604766,9.0094899 0.6929796,9.1913349 0.7453886,9.2072169 0.908176,9.0642799 1.662555,8.391691 4.0598919,6.469216 6.8066249,6.410454 Z"
     id="path17"
     style="fill:#ffffff"
     inkscape:connector-curvature="0" /></svg>